<svg xmlns="http://www.w3.org/2000/svg" width="21.987" height="28.375" viewBox="0 0 21.987 28.375"><defs><style>.a{fill:#fff;}</style></defs><g transform="translate(10.677) rotate(30)"><path class="a" d="M.562,0A1.494,1.494,0,0,0,0,.109V9.783l2.06.965V1.5A1.5,1.5,0,0,0,.562,0Z" transform="translate(13.487 4.308)"/><path class="a" d="M5.057,3a.562.562,0,0,0,0,1.124A1.313,1.313,0,0,0,6.369,2.81V2.622h.187a.562.562,0,1,0,0-1.124h-.2A1.686,1.686,0,0,0,3,1.686v.749a.562.562,0,0,1-1.124,0V1.311a.187.187,0,0,1,.187-.187A.562.562,0,1,0,2.06,0,1.313,1.313,0,0,0,.749,1.311V1.5H.562a.562.562,0,1,0,0,1.124h.2a1.686,1.686,0,0,0,3.361-.187V1.686a.562.562,0,1,1,1.124,0V2.81A.187.187,0,0,1,5.057,3Z" transform="translate(2.622 8.616)"/><path class="a" d="M10.008,17.849l-.581-.33.005,0A3,3,0,0,0,8.1,19.544a.374.374,0,0,1-.369.311H4.635a.374.374,0,0,1-.369-.311A3,3,0,0,0,1.81,17.088a.374.374,0,0,1-.311-.369V4.635a.374.374,0,0,1,.311-.369A3,3,0,0,0,4.266,1.81.374.374,0,0,1,4.635,1.5H7.728A.374.374,0,0,1,8.1,1.81a3,3,0,0,0,2.457,2.456.374.374,0,0,1,.311.369v8.228l1.5.7v-13A.562.562,0,0,0,11.8,0H.562A.562.562,0,0,0,0,.562v20.23a.562.562,0,0,0,.562.562h8.62a5.711,5.711,0,0,1,1.224-3.279Z"/><path class="a" d="M10.872,2.784,5,.035a.375.375,0,0,0-.477.142,1.763,1.763,0,0,0,.571,2.708A24.323,24.323,0,0,1,7.6,4.384c-.345.551-1.76,1.708-1.76,3.746v.937H0a3.737,3.737,0,0,0,2.846,1.311h4.5a3.746,3.746,0,0,0,3.746-3.746V3.124A.375.375,0,0,0,10.872,2.784Z" transform="translate(4.46 13.411)"/></g></svg>