<svg xmlns="http://www.w3.org/2000/svg" width="108.87" height="108.87" viewBox="0 0 108.87 108.87"><defs><style>.a{fill:#ff668b;}.b{fill:#f7487a;}.c{fill:#fff;}.d{fill:#ffcb5a;}.e{fill:#fba61f;}</style></defs><g transform="translate(0)"><path class="a" d="M108.87,143.7v.034l-.1,7.859c-2.245,9.662-9.628,18.746-20.311,25.075v14.969H61.239v-6.907a56.714,56.714,0,0,1-6.8,0v6.907H27.218V176.67a43.941,43.941,0,0,1-15.752-15.65H0V133.8H8.437c2.722-8.4,8.744-15.956,17.215-21.5l16.229-7.178,33.1,1.463c8.845,0,17.283,4.423,23.577,11.261A38.929,38.929,0,0,1,108.87,143.7Zm0,0" transform="translate(0 -82.769)"/><path class="b" d="M209.653,143.7v.034A44.217,44.217,0,0,1,128,120.193a43.738,43.738,0,0,1,.919-8.981l13.745-6.09,33.1,1.463c8.845,0,17.283,4.423,23.577,11.261A38.929,38.929,0,0,1,209.653,143.7Zm0,0" transform="translate(-100.782 -82.769)"/><path class="c" d="M112,224h6.8v6.8H112Zm0,0" transform="translate(-88.185 -176.369)"/><path class="d" d="M234.848,37.424A37.424,37.424,0,1,1,197.424,0,37.424,37.424,0,0,1,234.848,37.424Zm0,0" transform="translate(-125.978 0)"/><path class="e" d="M223.954,104.476a37.424,37.424,0,1,1-52.925-52.925Zm0,0" transform="translate(-126.045 -40.589)"/><path class="c" d="M301.609,64h-6.8v7.431a10.182,10.182,0,0,0,3.4,19.787,3.4,3.4,0,0,1,0,6.8H288v6.8h6.8v6.8h6.8V104.2a10.182,10.182,0,0,0-3.4-19.787,3.4,3.4,0,1,1,0-6.8h10.207V70.8h-6.8Zm0,0" transform="translate(-226.76 -50.391)"/><path class="c" d="M224,160h6.8v6.8H224Zm0,0" transform="translate(-176.369 -125.978)"/><path class="c" d="M416,160h6.8v6.8H416Zm0,0" transform="translate(-327.543 -125.978)"/><g transform="translate(0 59.702)"><path class="b" d="M22.363,348.329A41.96,41.96,0,0,1,11.466,336H0v6.8H11.466a43.871,43.871,0,0,0,15.752,15.643v-.591A12.091,12.091,0,0,0,22.363,348.329Zm0,0" transform="translate(0 -324.255)"/><path class="b" d="M128,486.8h27.218a6.8,6.8,0,0,0-6.8-6.8H134.8A6.8,6.8,0,0,0,128,486.8Zm0,0" transform="translate(-100.782 -437.636)"/><path class="b" d="M288,486.8h27.217a6.8,6.8,0,0,0-6.8-6.8H294.8A6.8,6.8,0,0,0,288,486.8Zm0,0" transform="translate(-226.76 -437.636)"/><path class="b" d="M436.325,283.082c-1.9,8.1-7.366,15.769-15.368,21.774A12.032,12.032,0,0,0,416,314.45v.521c10.693-6.345,18.055-15.4,20.325-25.085l.088-7.887c0-.411-.047-.82-.065-1.231Zm0,0" transform="translate(-327.543 -280.768)"/></g></g></svg>