<svg xmlns="http://www.w3.org/2000/svg" width="240.202" height="50.663" viewBox="0 0 240.202 50.663"><defs><style>.a{fill:#fff;}</style></defs><g transform="translate(0.01 0.01)"><path class="a" d="M33.972,50.653H3.3a3.3,3.3,0,0,1-2.342-.972l0,0A3.308,3.308,0,0,1-.01,47.339V7.636A3.308,3.308,0,0,1,.962,5.3l.007-.007A3.308,3.308,0,0,1,3.3,4.322h.4V46.935H33.567V30.167l3.718-3.718V47.339a3.3,3.3,0,0,1-.972,2.342l0,0a3.308,3.308,0,0,1-2.338.976ZM11.655,26.5l6.983,6.983L41.981,10.142,46.735,14.9l-28.1,28.1L6.9,31.255,11.655,26.5ZM27.984-.01h0a1.9,1.9,0,0,1,1.9,1.9v6.8a1.9,1.9,0,0,1-1.9,1.9h0a1.9,1.9,0,0,1-1.9-1.9v-6.8A1.9,1.9,0,0,1,27.984-.01ZM18.5-.01h0a1.9,1.9,0,0,1,1.9,1.9v6.8a1.9,1.9,0,0,1-1.9,1.9h0a1.9,1.9,0,0,1-1.9-1.9v-6.8A1.9,1.9,0,0,1,18.5-.01Zm-9.482,0h0a1.9,1.9,0,0,1,1.9,1.9v6.8a1.9,1.9,0,0,1-1.9,1.9h0a1.9,1.9,0,0,1-1.9-1.9v-6.8A1.9,1.9,0,0,1,9.021-.01ZM33.567,16.452V8.04h0V4.322h.4A3.308,3.308,0,0,1,36.31,5.3l0,0a3.3,3.3,0,0,1,.972,2.342v5.1l-3.718,3.718Z" transform="translate(0 0)"/><path class="a" d="M6325.09,1415.655h-3.424v-26.408h-9.326v-3.053h22.069v3.053h-9.319Zm36-29.462v19.07a10.4,10.4,0,0,1-3.04,7.922q-3.042,2.878-8.362,2.882t-8.232-2.9a10.777,10.777,0,0,1-2.909-7.984v-18.988h3.425v19.222a7.6,7.6,0,0,0,2.015,5.667,8.133,8.133,0,0,0,5.921,1.974,7.815,7.815,0,0,0,5.743-1.988,7.633,7.633,0,0,0,2.015-5.687v-19.187h3.425Zm31.312,14.449q0,7.293-3.961,11.155t-11.4,3.858h-8.156v-29.462h9.023q6.87,0,10.68,3.81t3.81,10.639Zm-3.631.124q0-5.767-2.888-8.679t-8.59-2.923h-4.979v23.52h4.167q6.127,0,9.209-3.012T6388.772,1400.766Zm35.774.124q0,7.077-3.576,11.127t-9.951,4.051q-6.509,0-10.041-3.982t-3.542-11.23q0-7.2,3.548-11.155t10.076-3.961q6.354,0,9.917,4.03t3.57,11.12Zm-23.478-.007q0,5.983,2.544,9.078t7.407,3.095q4.9,0,7.4-3.081t2.5-9.092q0-5.942-2.49-9.016t-7.365-3.074c-3.267,0-5.743,1.032-7.448,3.095S6401.069,1396.949,6401.069,1400.883Zm56.736.007q0,7.438-3.645,11.306t-10.681,3.872q-6.932,0-10.632-3.892t-3.693-11.32q0-7.355,3.679-11.237t10.687-3.879q7.036,0,10.659,3.851T6457.8,1400.89Zm-20.267-.007q0,8.542,5.941,8.541a5.11,5.11,0,0,0,4.484-2.077q1.466-2.073,1.465-6.465,0-4.415-1.485-6.52a5.05,5.05,0,0,0-4.422-2.1Q6437.539,1392.259,6437.538,1400.883Zm50.746,14.772H6479.3l-5.818-11.265-2.359,1.41v9.855h-8v-29.462h8v12.8a35.458,35.458,0,0,1,2.434-3.769l6.19-9.03h8.7l-9.284,13.2Z" transform="translate(-6248.25 -1371.678)"/></g></svg>