<svg xmlns="http://www.w3.org/2000/svg" width="95" height="119.783" viewBox="0 0 95 119.783"><defs><style>.a{fill:#379a6b;}.b{fill:#44c086;}.c{fill:#3ba673;}.d{fill:#f5cbaa;}</style></defs><g transform="translate(-72 -24)"><path class="a" d="M159.023,140.185l-8.545,2.674-7.383,2.31H104.318l-7.535-24.075L72,41.909l24.783-7.757,26.461-8.282,27.235,87.015Z" transform="translate(0 -1.387)"/><path class="b" d="M175.972,165.772l1.85,5.913-23.651,7.4-1.851-5.913-5.913,1.851L119.266,88.3l5.913-1.85-1.85-5.913,23.651-7.4,1.851,5.913,5.913-1.851,27.142,86.721Z" transform="translate(-35.064 -36.453)"/><path class="c" d="M168,24h53.7V143.783H168Z" transform="translate(-71.217)"/><path class="b" d="M230.978,153.065v6.2H206.2v-6.2H200V62.2h6.2V56h24.783v6.2h6.2v90.87Z" transform="translate(-94.957 -23.739)"/><ellipse class="c" cx="10.5" cy="10" rx="10.5" ry="10" transform="translate(113 74)"/><path class="d" d="M296.654,201.044v49.565H282.2a20.652,20.652,0,0,1-20.652-20.652h.041l-13.4-19.827a8.261,8.261,0,1,1,13.69-9.25l12.058,16.686h6.2V168l15.55,29.156a8.261,8.261,0,0,1,.972,3.888Z" transform="translate(-129.654 -106.826)"/></g></svg>