<svg xmlns="http://www.w3.org/2000/svg" width="106" height="101.833" viewBox="0 0 106 101.833"><defs><style>.a{fill:#ffd064;}.b{fill:#ffc250;}.c{fill:#407093;}.d{fill:#dbdbdb;}.e{fill:#80b4fb;}.f{fill:#61a2f9;}.g{fill:#365e7d;}.h{fill:#ededed;}</style></defs><g transform="translate(0 -10.064)"><g transform="translate(0 10.064)"><path class="a" d="M95.546,42.92A199.759,199.759,0,0,1,94.17,66.576a9.8,9.8,0,0,1-9.115,8.634,593.634,593.634,0,0,1-74.563,0,9.8,9.8,0,0,1-9.115-8.634A199.759,199.759,0,0,1,0,42.92q.016-9.495.939-18.991.2-2.028.436-4.06a9.8,9.8,0,0,1,9.115-8.634,593.633,593.633,0,0,1,74.563,0,9.8,9.8,0,0,1,9.115,8.634q.239,2.031.436,4.06.925,9.5.939,18.991Z" transform="translate(-0.001 -10.064)"/><path class="b" d="M10.678,79.666c-.062,0-.125-.006-.187-.011a9.8,9.8,0,0,1-9.115-8.634A199.759,199.759,0,0,1,0,47.366Q.016,37.871.94,28.375q.2-2.028.436-4.06a9.8,9.8,0,0,1,9.115-8.634c.064,0,.127-.009.191-.011A10.254,10.254,0,0,0,5.87,23.208q-.252,2.125-.458,4.251-.967,9.949-.982,19.892A208.67,208.67,0,0,0,5.87,72.128,10.257,10.257,0,0,0,10.678,79.666Z" transform="translate(0 -14.509)"/><g transform="translate(7.735 15.973)"><path class="c" d="M38.964,97.6a1.6,1.6,0,0,1-1.6-1.6V88.817a1.6,1.6,0,1,1,3.2,0V96A1.6,1.6,0,0,1,38.964,97.6Z" transform="translate(-37.364 -87.217)"/><path class="c" d="M66.258,97.6a1.6,1.6,0,0,1-1.6-1.6V88.817a1.6,1.6,0,1,1,3.2,0V96A1.6,1.6,0,0,1,66.258,97.6Z" transform="translate(-59.007 -87.217)"/><path class="c" d="M93.551,97.6a1.6,1.6,0,0,1-1.6-1.6V88.817a1.6,1.6,0,1,1,3.2,0V96A1.6,1.6,0,0,1,93.551,97.6Z" transform="translate(-80.65 -87.217)"/><g transform="translate(20.273)"><path class="c" d="M136.887,97.6a1.6,1.6,0,0,1-1.6-1.6V88.817a1.6,1.6,0,1,1,3.2,0V96A1.6,1.6,0,0,1,136.887,97.6Z" transform="translate(-135.287 -87.217)"/><path class="c" d="M164.18,97.6a1.6,1.6,0,0,1-1.6-1.6V88.817a1.6,1.6,0,1,1,3.2,0V96A1.6,1.6,0,0,1,164.18,97.6Z" transform="translate(-156.93 -87.217)"/><path class="c" d="M191.473,97.6a1.6,1.6,0,0,1-1.6-1.6V88.817a1.6,1.6,0,1,1,3.2,0V96A1.6,1.6,0,0,1,191.473,97.6Z" transform="translate(-178.572 -87.217)"/></g><g transform="translate(40.546)"><path class="c" d="M234.809,97.6a1.6,1.6,0,0,1-1.6-1.6V88.817a1.6,1.6,0,1,1,3.2,0V96A1.6,1.6,0,0,1,234.809,97.6Z" transform="translate(-233.209 -87.217)"/><path class="c" d="M262.1,97.6a1.6,1.6,0,0,1-1.6-1.6V88.817a1.6,1.6,0,1,1,3.2,0V96A1.6,1.6,0,0,1,262.1,97.6Z" transform="translate(-254.852 -87.217)"/><path class="c" d="M289.395,97.6a1.6,1.6,0,0,1-1.6-1.6V88.817a1.6,1.6,0,1,1,3.2,0V96A1.6,1.6,0,0,1,289.395,97.6Z" transform="translate(-276.494 -87.217)"/></g></g><path class="d" d="M326.375,102.128h13.652a1.846,1.846,0,0,0,1.846-1.846V96.789a1.846,1.846,0,0,0-1.846-1.846H326.375a1.846,1.846,0,0,0-1.846,1.846v3.493A1.846,1.846,0,0,0,326.375,102.128Z" transform="translate(-257.341 -77.37)"/></g><g transform="translate(10.455 45.579)"><path class="e" d="M146.044,214.467a199.759,199.759,0,0,1-1.376,23.655,9.8,9.8,0,0,1-9.115,8.634,593.631,593.631,0,0,1-74.563,0,9.8,9.8,0,0,1-9.115-8.634A199.76,199.76,0,0,1,50.5,214.467q.016-9.495.939-18.991.2-2.028.436-4.06a9.8,9.8,0,0,1,9.115-8.634,593.636,593.636,0,0,1,74.563,0,9.8,9.8,0,0,1,9.115,8.634q.239,2.031.436,4.06.925,9.5.939,18.991Z" transform="translate(-50.499 -181.611)"/><path class="f" d="M61.177,251.213c-.062,0-.125-.006-.187-.011a9.8,9.8,0,0,1-9.115-8.634A199.759,199.759,0,0,1,50.5,218.913q.016-9.494.939-18.991.2-2.028.436-4.06a9.8,9.8,0,0,1,9.115-8.634c.064,0,.127-.009.191-.011a10.252,10.252,0,0,0-4.812,7.538q-.252,2.125-.458,4.251-.967,9.949-.982,19.892a208.671,208.671,0,0,0,1.44,24.777A10.256,10.256,0,0,0,61.177,251.213Z" transform="translate(-50.499 -186.056)"/><path class="c" d="M146.045,266.452q-45.558.584-91.115.052-2.215-.022-4.43-.052.016-9.495.939-18.991,2.2-.029,4.391-.052,44.639-.509,89.275.052Q146.031,256.959,146.045,266.452Z" transform="translate(-50.5 -233.595)"/><path class="g" d="M55.83,248.335q-.887,9.517-.9,19.028v.067q-2.215-.022-4.43-.052.016-9.495.939-18.991Q53.635,248.358,55.83,248.335Z" transform="translate(-50.5 -234.521)"/><g transform="translate(7.735 38.27)"><path class="h" d="M89.463,376.846a1.6,1.6,0,0,1-1.6-1.6v-7.185a1.6,1.6,0,0,1,3.2,0v7.185A1.6,1.6,0,0,1,89.463,376.846Z" transform="translate(-87.863 -366.462)"/><path class="h" d="M116.756,376.846a1.6,1.6,0,0,1-1.6-1.6v-7.185a1.6,1.6,0,0,1,3.2,0v7.185A1.6,1.6,0,0,1,116.756,376.846Z" transform="translate(-109.506 -366.462)"/><path class="h" d="M144.05,376.846a1.6,1.6,0,0,1-1.6-1.6v-7.185a1.6,1.6,0,0,1,3.2,0v7.185A1.6,1.6,0,0,1,144.05,376.846Z" transform="translate(-131.149 -366.462)"/><g transform="translate(20.273)"><path class="h" d="M187.385,376.846a1.6,1.6,0,0,1-1.6-1.6v-7.185a1.6,1.6,0,0,1,3.2,0v7.185A1.6,1.6,0,0,1,187.385,376.846Z" transform="translate(-185.785 -366.462)"/><path class="h" d="M214.678,376.846a1.6,1.6,0,0,1-1.6-1.6v-7.185a1.6,1.6,0,0,1,3.2,0v7.185A1.6,1.6,0,0,1,214.678,376.846Z" transform="translate(-207.428 -366.462)"/><path class="h" d="M241.972,376.846a1.6,1.6,0,0,1-1.6-1.6v-7.185a1.6,1.6,0,0,1,3.2,0v7.185A1.6,1.6,0,0,1,241.972,376.846Z" transform="translate(-229.071 -366.462)"/></g><g transform="translate(40.546)"><path class="h" d="M285.307,376.846a1.6,1.6,0,0,1-1.6-1.6v-7.185a1.6,1.6,0,0,1,3.2,0v7.185A1.6,1.6,0,0,1,285.307,376.846Z" transform="translate(-283.707 -366.462)"/><path class="h" d="M312.6,376.846a1.6,1.6,0,0,1-1.6-1.6v-7.185a1.6,1.6,0,0,1,3.2,0v7.185A1.6,1.6,0,0,1,312.6,376.846Z" transform="translate(-305.35 -366.462)"/><path class="h" d="M339.893,376.846a1.6,1.6,0,0,1-1.6-1.6v-7.185a1.6,1.6,0,0,1,3.2,0v7.185A1.6,1.6,0,0,1,339.893,376.846Z" transform="translate(-326.993 -366.462)"/></g></g><path class="a" d="M386.948,449.82H367.8a1.6,1.6,0,0,1,0-3.2h19.15a1.6,1.6,0,0,1,0,3.2Z" transform="translate(-300.839 -391.756)"/><path class="a" d="M287.859,449.82H276.922a1.6,1.6,0,0,1,0-3.2h10.936a1.6,1.6,0,1,1,0,3.2Z" transform="translate(-228.777 -391.756)"/></g></g></svg>