<svg xmlns="http://www.w3.org/2000/svg" width="26.123" height="13.394" viewBox="0 0 26.123 13.394"><defs><style>.a{fill:#35bcbd	;}</style></defs><path class="a" d="M18.787,7.751v6.33a1.791,1.791,0,0,1-1.657.26l-.183-.067a2.951,2.951,0,0,0-.54-3.4L13.16,7.626l2.582-.906Z" transform="translate(1.693 -5.013)"/><path class="a" d="M10.655,12.026l3.4,3.343v.01a1.869,1.869,0,0,1-.482.819,2.006,2.006,0,0,1-1.5.578L8.449,13.153a.38.38,0,0,0-.125.289.393.393,0,0,0,.183.337l3.44,3.372a1.919,1.919,0,0,1-.414.626,2.019,2.019,0,0,1-1.436.588,1.977,1.977,0,0,1-1.387-.559l-2.12-1.917a4.131,4.131,0,0,0-1.6-.906A.267.267,0,0,0,5,14.9V6.8L7.476,5.783A2.513,2.513,0,0,1,9.644,5.9l-.154.077a2.915,2.915,0,0,0-.761,4.673,2.915,2.915,0,0,0,1.811.838.339.339,0,0,0-.067.2.382.382,0,0,0,.183.337Z" transform="translate(0.844 -4.972)"/><path class="a" d="M15.948,14.1a1.564,1.564,0,0,1-.3.414,2.05,2.05,0,0,1-1.281.626L10.89,11.67h.116a3,3,0,0,0,1.33-.318l.308-.164L14.3,10.35l1.339,1.339.01.01A2,2,0,0,1,15.948,14.1Z" transform="translate(1.371 -5.146)"/><path class="a" d="M3.131,15.635H.723A.723.723,0,0,1,0,14.912V6.723A.723.723,0,0,1,.723,6H3.131a.723.723,0,0,1,.723.723v8.189A.723.723,0,0,1,3.131,15.635Z" transform="translate(0 -4.987)"/><path class="a" d="M23.131,15.635H20.723A.723.723,0,0,1,20,14.912V6.723A.723.723,0,0,1,20.723,6h2.409a.723.723,0,0,1,.723.723v8.189A.723.723,0,0,1,23.131,15.635Z" transform="translate(2.269 -4.987)"/><path class="a" d="M17.613,6.058c-.01,0-.019-.01-.039-.01l-2.206-.906a2.546,2.546,0,0,0-2.12.077l-2.63,1.32-.549.27a1.951,1.951,0,0,0-.511,3.131,1.956,1.956,0,0,0,2.264.356l.318-.164,1.378-.694,3.835-1.927,1.281.53V6.684a.624.624,0,0,1,.019-.193Z" transform="translate(1.602 -4.949)"/></svg>