<svg xmlns="http://www.w3.org/2000/svg" width="99" height="108.352" viewBox="0 0 99 108.352"><defs><style>.a{fill:#956346;}.b{fill:#aa826b;}.c{fill:#c8ec6c;}.d{fill:#def4a7;}.e{fill:#4d4d4d;}.f{fill:#8a8275;}.g{fill:#e2b88f;}.h{fill:#eed4bc;}.i{fill:#b8b8b8;}.j{fill:red;}.k{fill:#717171;}.l{fill:#fff;}</style></defs><g transform="translate(-2 -2)"><path class="a" d="M6,35H27.67V76.535H6Z" transform="translate(3.223 26.594)"/><path class="b" d="M6,62.028C17.359,61.433,26.556,49.792,27.568,35H6Z" transform="translate(3.223 26.594)"/><path class="c" d="M30.894,18H9.223A7.224,7.224,0,0,0,2,25.223v30.7H9.223V48.7h21.67v7.223h7.223v-30.7A7.224,7.224,0,0,0,30.894,18Z" transform="translate(0 12.894)"/><path class="d" d="M30.894,18H9.223A7.224,7.224,0,0,0,2,25.223V40.035a23.825,23.825,0,0,0,8.126,1.441c11.837,0,21.934-8.784,26.028-21.176A7.183,7.183,0,0,0,30.894,18Z" transform="translate(0 12.894)"/><path class="e" d="M12,58H22.835a3.611,3.611,0,0,1,3.612,3.612v3.612H12Z" transform="translate(8.059 45.129)"/><path class="e" d="M18.447,58H7.612A3.611,3.611,0,0,0,4,61.612v3.612H18.447Z" transform="translate(1.612 45.129)"/><path class="f" d="M12,50H26.447v7.223H12Z" transform="translate(8.059 38.682)"/><g transform="translate(2 9.223)"><path class="g" d="M2,35H9.223v7.223H2Z" transform="translate(-2 17.37)"/><path class="g" d="M18,35h7.223v7.223H18Z" transform="translate(10.894 17.37)"/><path class="g" d="M9,18v1.806a5.418,5.418,0,1,0,10.835,0V18Z" transform="translate(3.641 3.67)"/><path class="g" d="M21.447,6c0,3.989-6.846,7.223-10.835,7.223H7v5.418a9.029,9.029,0,0,0,18.059,0v-6.42A7.19,7.19,0,0,1,21.447,6Z" transform="translate(2.029 -6)"/></g><path class="h" d="M22.63,9.908A7.066,7.066,0,0,1,21.447,6c0,3.989-6.846,7.223-10.835,7.223H7v5.418a8.976,8.976,0,0,0,.758,3.6c.049,0,.1.009.144.009C14.884,22.253,20.768,17.039,22.63,9.908Z" transform="translate(4.029 3.223)"/><path class="a" d="M23.059,9.223c0,3.989-6.846,7.223-10.835,7.223H5V9.223A7.224,7.224,0,0,1,12.223,2H23.059a7.224,7.224,0,0,1,7.223,7.223v7.223A7.224,7.224,0,0,1,23.059,9.223Z" transform="translate(2.418)"/><path class="g" d="M20.693,10H17.081v5.418a9.007,9.007,0,0,1-.182,1.806h3.794a3.612,3.612,0,0,0,0-7.223Z" transform="translate(12.007 6.447)"/><path class="g" d="M6.612,10h3.612v5.418a9.008,9.008,0,0,0,.182,1.806H6.612a3.612,3.612,0,0,1,0-7.223Z" transform="translate(0.806 6.447)"/><g transform="translate(34.506 76.041)"><path class="i" d="M39.865,73.7a5.424,5.424,0,0,1-5.418-5.418V48.418a1.806,1.806,0,0,0-3.612,0v7.223a5.424,5.424,0,0,1-5.418,5.418H20V57.447h5.418a1.809,1.809,0,0,0,1.806-1.806V48.418a5.418,5.418,0,1,1,10.835,0V68.282a1.806,1.806,0,0,0,3.612,0V64.67a5.424,5.424,0,0,1,5.418-5.418h9.029v3.612H47.088a1.809,1.809,0,0,0-1.806,1.806v3.612A5.424,5.424,0,0,1,39.865,73.7Z" transform="translate(-20 -43)"/></g><g transform="translate(88.153 50.759) rotate(180)"><path class="j" d="M5.418.53,0,5.947,2.554,8.5,4.888,6.166v8.282H8.5V6.166L10.835,8.5l2.554-2.554L7.971.53a1.8,1.8,0,0,0-2.554,0Z" transform="translate(0 0)"/><path class="j" d="M13.389,5.947,7.971.53a1.8,1.8,0,0,0-2.554,0L0,5.947,2.554,8.5,4.888,6.166v8.282H8.5V6.166L10.835,8.5Z" transform="translate(19.865 0)"/></g><g transform="translate(65.206 54.37)"><path class="i" d="M47.163,52.542l-9.029-3.612A1.806,1.806,0,0,1,38,45.638l5.99-2.994-1.535-7.677a1.805,1.805,0,0,1,2.853-1.8l5.97,4.477,6.116-6.116a1.806,1.806,0,0,1,3.048.923l1.434,7.173,5.385-1.347a1.806,1.806,0,0,1,1.986,2.682L63.83,49.989l-3.1-1.858,3.175-5.291-2.994.749a1.806,1.806,0,0,1-2.209-1.4L57.56,36.47l-4.838,4.838a1.8,1.8,0,0,1-2.36.168L46.92,38.9l.879,4.394a1.809,1.809,0,0,1-.963,1.97L43.21,47.072l5.3,2.118Z" transform="translate(-37 -31)"/></g><ellipse class="e" cx="16" cy="16.5" rx="16" ry="16.5" transform="translate(69 77.352)"/><path class="k" d="M65.734,47.841A16.235,16.235,0,0,0,40.685,67.426c.343.014.679.051,1.024.051C53.812,67.476,63.827,58.974,65.734,47.841Z" transform="translate(29.817 33.847)"/><g transform="translate(79.652 85.07)"><path class="l" d="M50.418,66.059H45V62.447h5.418a1.806,1.806,0,0,0,0-3.612,5.418,5.418,0,0,1,0-10.835h5.418v3.612H50.418a1.806,1.806,0,1,0,0,3.612,5.418,5.418,0,1,1,0,10.835Z" transform="translate(-45 -48)"/></g><g transform="translate(83.264 81.458)"><path class="l" d="M47,46h3.612v5.418H47Z" transform="translate(-47 -46)"/></g><g transform="translate(83.264 101.323)"><path class="l" d="M47,57h3.612v5.418H47Z" transform="translate(-47 -57)"/></g><g transform="translate(80.182 67.54)"><path class="i" d="M51.987,48.6H48.376V48.29a10.458,10.458,0,0,0-3.083-7.444l2.554-2.554a14.039,14.039,0,0,1,4.141,10Z" transform="translate(-45.293 -38.293)"/></g></g></svg>