<svg xmlns="http://www.w3.org/2000/svg" width="35.019" height="38.203" viewBox="0 0 35.019 38.203"><defs><style>.a{fill:#fff;}</style></defs><path class="a" d="M33.184,20A3.184,3.184,0,0,0,30,23.184V55.02a3.184,3.184,0,0,0,6.367,0V23.184A3.184,3.184,0,0,0,33.184,20Z" transform="translate(-15.674 -20)"/><path class="a" d="M24.184,20a3.184,3.184,0,0,0-2.251,5.435L36.259,39.761a3.183,3.183,0,1,0,4.5-4.5L26.434,20.933A3.174,3.174,0,0,0,24.183,20Z" transform="translate(-21 -2.49)"/><path class="a" d="M47.51,20a3.174,3.174,0,0,0-2.251.933L30.933,35.259a3.183,3.183,0,1,0,4.5,4.5L49.761,25.435A3.184,3.184,0,0,0,47.51,20Z" transform="translate(-15.674 -2.49)"/></svg>