<svg xmlns="http://www.w3.org/2000/svg" width="30.305" height="30" viewBox="0 0 30.305 30"><defs><style>.a{fill:none;}.b{fill:#fff;}</style></defs><g transform="translate(-29.695 -168)"><rect class="a" width="30" height="30" transform="translate(30 168)"/><g transform="translate(29.695 170.695)"><path class="b" d="M33.124,9.73a2.306,2.306,0,0,0,1.47-.513l2.1.9a1.544,1.544,0,0,0-.026.221,2.149,2.149,0,0,0,4.249,0,1.6,1.6,0,0,0-.213-.782l2.844-2.442a2.386,2.386,0,0,0,.91.183,1.994,1.994,0,0,0,2.124-1.824,1.569,1.569,0,0,0-.106-.54l2.471-1.591a2.363,2.363,0,0,0,1.176.307,1.994,1.994,0,0,0,2.124-1.824,2.149,2.149,0,0,0-4.249,0,1.569,1.569,0,0,0,.106.54L45.63,3.956a2.363,2.363,0,0,0-1.176-.307A1.994,1.994,0,0,0,42.33,5.473a1.6,1.6,0,0,0,.213.782L39.7,8.7a2.386,2.386,0,0,0-.91-.183,2.306,2.306,0,0,0-1.47.513l-2.1-.9a1.543,1.543,0,0,0,.026-.221,2.149,2.149,0,0,0-4.249,0A1.994,1.994,0,0,0,33.124,9.73Zm0,0" transform="translate(-29.743 0)"/><path class="b" d="M23.061,166.211h-.742V150.732a.715.715,0,0,0-.7-.732H18.839a.715.715,0,0,0-.7.732v15.479H16.751V155.127a.715.715,0,0,0-.7-.732H13.271a.715.715,0,0,0-.7.732v11.084H11.183v-5.225a.715.715,0,0,0-.7-.732H7.7a.715.715,0,0,0-.7.732v5.225H5.615v-8.155a.715.715,0,0,0-.7-.732H2.134a.715.715,0,0,0-.7.732v8.155H.7a.733.733,0,0,0,0,1.465H23.061a.733.733,0,0,0,0-1.465Zm0,0" transform="translate(0 -143.919)"/></g></g></svg>