<svg xmlns="http://www.w3.org/2000/svg" xmlns:xlink="http://www.w3.org/1999/xlink" width="545" height="186" viewBox="0 0 545 186"><defs><style>.a,.h{fill:#fff;}.b{fill:#2d2d2d;font-size:22px;}.b,.d{font-family:OpenSans-Bold, Open Sans;font-weight:700;}.c{font-size:32px;}.d{fill:#9a9a9a;font-size:17px;}.e{fill:#4731d4;}.f{fill:none;}.g{fill:#00bf2d;}.h{fill-rule:evenodd;}.i{filter:url(#a);}</style><filter id="a" x="0" y="0" width="545" height="186" filterUnits="userSpaceOnUse"><feOffset dy="3" input="SourceAlpha"/><feGaussianBlur stdDeviation="3" result="b"/><feFlood flood-opacity="0.161"/><feComposite operator="in" in2="b"/><feComposite in="SourceGraphic"/></filter></defs><g transform="translate(-337 -211)"><g class="i" transform="matrix(1, 0, 0, 1, 337, 211)"><rect class="a" width="527" height="168" rx="41" transform="translate(9 6)"/></g><text class="b" transform="translate(376 254)"><tspan x="0" y="0">Status: </tspan><tspan class="c"><tspan x="0" y="30">Verde</tspan></tspan></text><text class="d" transform="translate(376 334)"><tspan x="0" y="0">Suas finanças estou ótimas, mas </tspan><tspan x="0" y="23">sempre há espaço para melhorar.</tspan></text><rect class="e" width="72" height="2" rx="1" transform="translate(376 296)"/><g transform="translate(693 279)"><path class="f" d="M0,0H48V48H0Z"/></g><g transform="translate(-10 -9)"><path class="g" d="M54.5,0A54.5,54.5,0,1,1,0,54.5,54.5,54.5,0,0,1,54.5,0Z" transform="translate(741 253)"/><path class="h" d="M73.059,31.054A5.69,5.69,0,0,1,81.107,39.1L48.94,71.267l-.021.021a5.688,5.688,0,0,1-8.047,0l-.022-.022L24.778,55.195a5.69,5.69,0,1,1,8.047-8.047L44.9,59.218Z" transform="translate(745 255.411)"/></g></g></svg>