<svg xmlns="http://www.w3.org/2000/svg" width="30" height="30" viewBox="0 0 30 30"><defs><style>.a{fill:none;}.b{fill:#9f91f3;}</style></defs><g transform="translate(-30 -357)"><rect class="a" width="30" height="30" transform="translate(30 357)"/><g transform="translate(36.885 357.919)"><g transform="translate(0 4.274)"><g transform="translate(0)"><path class="b" d="M106.564,88.136a7.616,7.616,0,0,0-4.157,14v.318h3.423v-3.8a2.382,2.382,0,0,1-1.644-2.262.734.734,0,1,1,1.468,0,.91.91,0,1,0,1.82,0,.734.734,0,0,1,1.468,0,2.382,2.382,0,0,1-1.644,2.262v3.8h3.423v-.318a7.616,7.616,0,0,0-4.157-14Z" transform="translate(-98.948 -88.136)"/></g></g><g transform="translate(3.459 20.058)"><g transform="translate(0)"><path class="b" d="M170.272,413.62v.614a4.157,4.157,0,0,0,8.314,0v-.614Z" transform="translate(-170.272 -413.62)"/></g></g><g transform="translate(6.882)"><g transform="translate(0)"><path class="b" d="M241.6,0a.734.734,0,0,0-.734.734V2.023a.734.734,0,1,0,1.468,0V.734A.734.734,0,0,0,241.6,0Z" transform="translate(-240.862)"/></g></g><g transform="translate(3.674 0.531)"><g transform="translate(0)"><path class="b" d="M176.6,12.627l-.456-1.206a.734.734,0,1,0-1.373.519l.456,1.206a.734.734,0,0,0,1.373-.519Z" transform="translate(-174.719 -10.947)"/></g></g><g transform="translate(9.633 0.531)"><g transform="translate(0)"><path class="b" d="M299.05,10.993a.734.734,0,0,0-.946.427l-.456,1.206a.734.734,0,1,0,1.373.519l.456-1.206A.734.734,0,0,0,299.05,10.993Z" transform="translate(-297.601 -10.945)"/></g></g></g></g></svg>