<svg xmlns="http://www.w3.org/2000/svg" width="94.34" height="100" viewBox="0 0 94.34 100"><defs><style>.a{fill:#efce4a;}.b{fill:#f7e6a1;}.c{fill:#556080;}</style></defs><g transform="translate(-1.5)"><path class="a" d="M40.689,9a30.181,30.181,0,0,0-9.434,58.853V86.358h3.774v5.66H46.349v-5.66h3.774V67.853A30.181,30.181,0,0,0,40.689,9Z" transform="translate(7.981 7.981)"/><g transform="translate(1.5)"><path class="a" d="M27.387,0A1.885,1.885,0,0,0,25.5,1.887V9.434a1.887,1.887,0,1,0,3.774,0V1.887A1.885,1.885,0,0,0,27.387,0Z" transform="translate(19.783)"/><path class="a" d="M54.934,24H47.387a1.887,1.887,0,1,0,0,3.774h7.547a1.887,1.887,0,0,0,0-3.774Z" transform="translate(37.519 21.283)"/><path class="a" d="M10.934,24H3.387a1.887,1.887,0,1,0,0,3.774h7.547a1.887,1.887,0,1,0,0-3.774Z" transform="translate(-1.5 21.283)"/><path class="a" d="M45.532,7.582,40.2,12.918a1.887,1.887,0,1,0,2.668,2.668L48.2,10.25a1.887,1.887,0,1,0-2.668-2.668Z" transform="translate(32.325 6.233)"/><path class="a" d="M14.418,38.7,9.082,44.032A1.887,1.887,0,1,0,11.75,46.7l5.336-5.336A1.887,1.887,0,1,0,14.418,38.7Z" transform="translate(4.733 33.825)"/><path class="a" d="M42.864,38.7A1.887,1.887,0,0,0,40.2,41.364L45.532,46.7A1.887,1.887,0,0,0,48.2,44.032Z" transform="translate(32.325 33.825)"/><path class="a" d="M11.75,7.582A1.887,1.887,0,0,0,9.082,10.25l5.336,5.336a1.887,1.887,0,1,0,2.668-2.668Z" transform="translate(4.733 6.233)"/></g><path class="b" d="M16.387,37.528A1.885,1.885,0,0,1,14.5,35.642,22.667,22.667,0,0,1,37.142,13a1.887,1.887,0,0,1,0,3.774A18.889,18.889,0,0,0,18.274,35.642,1.885,1.885,0,0,1,16.387,37.528Z" transform="translate(11.528 11.528)"/><path class="c" d="M21.5,43V56.208h3.774v5.66H36.594v-5.66h3.774V43Z" transform="translate(17.736 38.132)"/></g></svg>