<svg xmlns="http://www.w3.org/2000/svg" width="92.195" height="123.911" viewBox="0 0 92.195 123.911"><defs><style>.a{fill:#f9ba48;}.b{fill:#333;}</style></defs><g transform="translate(0 0)"><path class="a" d="M66.615,18.39l20.227-5.509,4.97,4.134A14.149,14.149,0,0,0,94.2,9.14V4.607a4.6,4.6,0,1,0-9.194,0V6.446a.92.92,0,0,1-1.839,0V4.607a4.6,4.6,0,1,0-9.194,0V6.446a.92.92,0,1,1-1.839,0V4.607a4.6,4.6,0,1,0-9.194,0V9.14a14.144,14.144,0,0,0,2.385,7.875Z" transform="translate(-25.905 -0.01)"/><path class="b" d="M1.4,72.982l3.678-1.839h5.95V43.562H23.9V78.5H11.033V74.821H5.951L2.273,76.66H0V72.982Zm13.306,1.839h5.516V47.239H14.71V74.822Z" transform="translate(68.291 -27.02)"/><path class="a" d="M67.462,128.468c.333,0,.664-.006,1-.02A24.207,24.207,0,0,0,91.375,105a23.7,23.7,0,0,0-6.754-17.068,20.531,20.531,0,0,1-6.114-14.24l-9.194-5.9-3.678,3.678v18.38H52.764l-2.153-2.214a23.9,23.9,0,0,0,16.85,40.836Z" transform="translate(-15.732 -42.045)"/><path class="b" d="M100.69,136.9v-.912a6.449,6.449,0,0,0-6.436-6.443h-.92v-3.678H89.656v3.678h-.92a6.436,6.436,0,0,0,0,12.872h5.517a2.758,2.758,0,1,1,0,5.516H88.737a2.755,2.755,0,0,1-2.758-2.751v-.927H82.3v.927a6.436,6.436,0,0,0,6.436,6.428h.92v3.678h3.678v-3.678h.92a6.436,6.436,0,1,0,0-12.872H88.737a2.758,2.758,0,1,1,0-5.516h5.517a2.768,2.768,0,0,1,2.758,2.765v.912Z" transform="translate(-39.753 -78.062)"/><path class="b" d="M30.483,43.441a5.5,5.5,0,0,1,4.082-9.2h6.844l1.28-1.6,14.37-4.11,11.27,9.387h8.528v3.678H67L56.2,32.6,44.827,35.852l-3.869,4.834a3,3,0,0,0,.544,4.279,3.017,3.017,0,0,0,3.924-.28l3.711-3.711,10.479,8.384-2.3,2.872L49.411,45.9l-1.383,1.384a6.419,6.419,0,0,1-.651.539A4.729,4.729,0,0,1,46,50.79a5.435,5.435,0,0,1,0,7.357,5.462,5.462,0,0,1,1.434,3.674,5.521,5.521,0,0,1-5.516,5.516H34.564a5.489,5.489,0,0,1-4.082-9.188,5.433,5.433,0,0,1,0-7.355,5.428,5.428,0,0,1,0-7.352ZM34.565,63.66H41.92a1.839,1.839,0,1,0,0-3.677H34.565a1.839,1.839,0,0,0,0,3.677Zm0-7.355H41.92a1.839,1.839,0,1,0,0-3.677H34.565a1.839,1.839,0,0,0,0,3.677Zm0-7.355h6.813a6.476,6.476,0,0,1-4.148-3.677H34.565a1.839,1.839,0,0,0,0,3.677Zm0-7.355h2.157a6.616,6.616,0,0,1,1.366-3.2l.379-.472h-3.9a1.839,1.839,0,0,0,0,3.677Z" transform="translate(4.306 -17.698)"/><path class="b" d="M114.626,221.533v5.516H126.94l5.053-3.369,15.5-5.5a5.682,5.682,0,0,1,7.319,3.713,5.692,5.692,0,0,1-2.771,6.664l-3.981,2.114,5.788.018,2.38-5.95a5.115,5.115,0,0,1,9.595,3.534l-.557,1.651,4.034-2.2a5.279,5.279,0,1,1,4.865,9.367l-9.076,4.479-18.84,3.832-24.447.035L114.626,244v5.112H101.754V221.533Zm47.514,4.275a1.486,1.486,0,0,0-2.5.3l-1.839,4.6,3.314.011,1.217-3.615A1.421,1.421,0,0,0,162.14,225.808ZM122.163,241.76H145.7l17.972-3.595,8.859-4.371a1.6,1.6,0,0,0,.75-2.1,1.576,1.576,0,0,0-.951-.857,1.56,1.56,0,0,0-1.276.114l-6.316,3.451H147.29l-7.256-3.628,10.277-5.463a2.011,2.011,0,0,0,.978-2.35,2.006,2.006,0,0,0-2.582-1.311l-14.869,5.217-5.785,3.858H114.625v9.525Zm-16.731,3.677h5.516V225.21h-5.516Z" transform="translate(-101.754 -125.204)"/></g></svg>