<svg xmlns="http://www.w3.org/2000/svg" width="287.044" height="287" viewBox="0 0 287.044 287"><defs><style>.a{fill:#f29c1f;}.b{fill:#f0c419;}.c{fill:#26b99a;}.d{fill:#4fba6f;}.e{fill:#ecf0f1;}.f{fill:#81ccb8;}.g{fill:#e64c3c;}.h{fill:#14a085;}.i{fill:#95a5a5;}</style></defs><g transform="translate(0.009)"><g transform="translate(-0.009)"><path class="a" d="M40.621,4,1.337,164.819a9.8,9.8,0,0,0,9.1,12.371H50.518Z" transform="translate(-0.991 15.793)"/><path class="b" d="M28.793,196.983H18.9a9.926,9.926,0,0,1-9.9-9.9V4H226.724a9.926,9.926,0,0,1,9.9,9.9v113.81Z" transform="translate(30.63 15.793)"/><rect class="c" width="228" height="144" rx="2" transform="translate(59 143)"/><circle class="a" cx="15" cy="15" r="15" transform="translate(64 84)"/><circle class="a" cx="15" cy="15" r="15" transform="translate(114 84)"/><circle class="a" cx="15" cy="15" r="15" transform="translate(213 84)"/><path class="d" d="M43.848,55.587a4.948,4.948,0,0,1-3.5-1.45L35.4,49.189a4.948,4.948,0,0,1,7-7l.683.683L59.524,18.2A4.949,4.949,0,1,1,67.758,23.7L47.965,53.385a4.948,4.948,0,0,1-3.622,2.2h-.495Z" transform="translate(129.385 63.172)"/><path class="e" d="M60.709,82.978V53.7a14.845,14.845,0,0,1,9.9,13.934,4.948,4.948,0,0,0,9.9,0A24.786,24.786,0,0,0,60.709,43.391V37.948a4.948,4.948,0,1,0-9.9,0v5.443a24.741,24.741,0,0,0,0,48.493v29.279a14.845,14.845,0,0,1-9.9-13.939,4.948,4.948,0,0,0-9.9,0,24.786,24.786,0,0,0,19.793,24.247v5.443a4.948,4.948,0,0,0,9.9,0v-5.443a24.741,24.741,0,0,0,0-48.493ZM40.916,67.638a14.845,14.845,0,0,1,9.9-13.934V81.572A14.845,14.845,0,0,1,40.916,67.638Zm19.793,53.521V93.29a14.756,14.756,0,0,1,0,27.869Z" transform="translate(117.472 130.293)"/><circle class="f" cx="15" cy="15" r="15" transform="translate(89 198)"/><ellipse class="f" cx="14.5" cy="15" rx="14.5" ry="15" transform="translate(228 198)"/><path class="g" d="M236.621,13.9v29.69H9V4H226.724A9.926,9.926,0,0,1,236.621,13.9Z" transform="translate(30.63 15.793)"/><g transform="translate(59.423 143.5)"><path class="h" d="M90.586,50V79.69a9.926,9.926,0,0,1-9.9,9.9H51A39.586,39.586,0,0,1,90.586,50Z" transform="translate(137.034 53.914)"/><path class="h" d="M52.586,29A39.586,39.586,0,0,1,13,68.586V38.9A9.926,9.926,0,0,1,22.9,29Z" transform="translate(-13 -29)"/><path class="h" d="M52.586,89.586H22.9a9.926,9.926,0,0,1-9.9-9.9V50A39.586,39.586,0,0,1,52.586,89.586Z" transform="translate(-13 53.914)"/><path class="h" d="M90.586,38.9v29.69A39.586,39.586,0,0,1,51,29H80.69A9.926,9.926,0,0,1,90.586,38.9Z" transform="translate(137.034 -29)"/></g><rect class="i" width="19" height="40" rx="2" transform="translate(228 0)"/><rect class="i" width="20" height="40" rx="2" transform="translate(173 0)"/><rect class="i" width="20" height="40" rx="2" transform="translate(119 0)"/><rect class="i" width="20" height="40" rx="2" transform="translate(64 0)"/></g></g></svg>