<svg xmlns="http://www.w3.org/2000/svg" width="18.584" height="17.358" viewBox="0 0 18.584 17.358"><defs><style>.a{fill:#35bcbd;}</style></defs><g transform="translate(0 -16.192)"><g transform="translate(0 16.192)"><path class="a" d="M18.509,23.706a1.535,1.535,0,0,0-.731-1.125,1.512,1.512,0,0,0-1.319-.118.726.726,0,0,1-.907-.407,6.861,6.861,0,0,0-.69-1.2.723.723,0,0,1,.1-.991,1.5,1.5,0,0,0,.551-1.2,1.53,1.53,0,0,0-.612-1.2,9.286,9.286,0,0,0-2-1.157,1.539,1.539,0,0,0-1.346.068,1.5,1.5,0,0,0-.761,1.075.73.73,0,0,1-.812.582,6.628,6.628,0,0,0-1.375,0,.725.725,0,0,1-.811-.581,1.5,1.5,0,0,0-.76-1.075,1.541,1.541,0,0,0-1.347-.069,9.316,9.316,0,0,0-2,1.157,1.53,1.53,0,0,0-.611,1.2,1.506,1.506,0,0,0,.551,1.2.721.721,0,0,1,.1.99,6.873,6.873,0,0,0-.69,1.2.729.729,0,0,1-.915.4,1.508,1.508,0,0,0-1.311.121,1.532,1.532,0,0,0-.732,1.124,9.067,9.067,0,0,0,0,2.329A1.533,1.533,0,0,0,.806,27.16a1.5,1.5,0,0,0,1.32.118.729.729,0,0,1,.906.407,6.874,6.874,0,0,0,.69,1.2.722.722,0,0,1-.1.991,1.5,1.5,0,0,0-.55,1.2,1.534,1.534,0,0,0,.611,1.2,9.344,9.344,0,0,0,2,1.157,1.556,1.556,0,0,0,.605.123,1.525,1.525,0,0,0,.741-.191,1.5,1.5,0,0,0,.761-1.075A.726.726,0,0,1,8.6,31.7a6.628,6.628,0,0,0,1.375,0,.722.722,0,0,1,.811.581,1.5,1.5,0,0,0,.761,1.075,1.539,1.539,0,0,0,1.346.069,9.316,9.316,0,0,0,2-1.157,1.534,1.534,0,0,0,.611-1.2,1.5,1.5,0,0,0-.553-1.2.722.722,0,0,1-.1-.99,6.865,6.865,0,0,0,.69-1.2.732.732,0,0,1,.907-.408l.009,0a1.5,1.5,0,0,0,1.311-.12,1.532,1.532,0,0,0,.731-1.124,8.912,8.912,0,0,0,.076-1.166A9.016,9.016,0,0,0,18.509,23.706Zm-9.217,4.8a3.636,3.636,0,1,1,3.636-3.636A3.64,3.64,0,0,1,9.292,28.507Z" transform="translate(0 -16.192)"/></g></g></svg>