<svg xmlns="http://www.w3.org/2000/svg" width="35.019" height="38.203" viewBox="0 0 35.019 38.203"><defs><style>.a{fill:#fff;}</style></defs><g transform="translate(-23.879 -22.686)"><path class="a" d="M33.184,58.2A3.184,3.184,0,0,1,30,55.02V23.184a3.184,3.184,0,1,1,6.367,0V55.02A3.184,3.184,0,0,1,33.184,58.2Z" transform="translate(8.205 2.686)"/><path class="a" d="M24.184,40.693a3.184,3.184,0,0,1-2.251-5.435L36.259,20.933a3.183,3.183,0,1,1,4.5,4.5L26.434,39.761a3.174,3.174,0,0,1-2.251.933Z" transform="translate(2.879 2.686)"/><path class="a" d="M47.51,40.693a3.174,3.174,0,0,1-2.251-.933L30.933,25.435a3.183,3.183,0,1,1,4.5-4.5L49.761,35.259a3.184,3.184,0,0,1-2.251,5.435Z" transform="translate(8.205 2.686)"/></g></svg>