<svg xmlns="http://www.w3.org/2000/svg" xmlns:xlink="http://www.w3.org/1999/xlink" width="456" height="186" viewBox="0 0 456 186"><defs><style>.a{fill:#fff;}.b,.d{fill:#2d2d2d;font-family:OpenSans-Bold, Open Sans;font-weight:700;}.b{font-size:22px;}.c{fill:#4731d4;}.d{font-size:37px;}.e{fill:#00bf2d;}.f{filter:url(#a);}</style><filter id="a" x="0" y="0" width="456" height="186" filterUnits="userSpaceOnUse"><feOffset dy="3" input="SourceAlpha"/><feGaussianBlur stdDeviation="3" result="b"/><feFlood flood-opacity="0.161"/><feComposite operator="in" in2="b"/><feComposite in="SourceGraphic"/></filter></defs><g transform="translate(-1409 -211)"><g class="f" transform="matrix(1, 0, 0, 1, 1409, 211)"><rect class="a" width="438" height="168" rx="41" transform="translate(9 6)"/></g><text class="b" transform="translate(1449 266)"><tspan x="0" y="0">Outras Pendencias </tspan></text><rect class="c" width="72" height="2" rx="1" transform="translate(1449 278)"/><text class="d" transform="translate(1449 341)"><tspan x="0" y="0">0 encontrada</tspan></text><g transform="translate(1595.709 612.279)"><g transform="translate(163.26 -370)"><path class="e" d="M195.31,6.42h-6.972a9.633,9.633,0,0,0-18.162,0H163.21A3.211,3.211,0,0,0,160,9.63V22.47a3.211,3.211,0,0,0,3.21,3.21h32.1a3.211,3.211,0,0,0,3.21-3.21V9.63A3.211,3.211,0,0,0,195.31,6.42Z" transform="translate(-160)"/></g><g transform="translate(144 -357.16)"><path class="e" d="M134.62,64H128.2v9.63a9.642,9.642,0,0,1-9.63,9.63H86.47a9.642,9.642,0,0,1-9.63-9.63V64H70.42A6.431,6.431,0,0,0,64,70.42v77.041a6.35,6.35,0,0,0,6.42,6.42h64.2a6.35,6.35,0,0,0,6.42-6.42V70.42A6.35,6.35,0,0,0,134.62,64Zm-33.038,56.843-12.84,12.84a3.224,3.224,0,0,1-4.545,0l-6.42-6.42a3.21,3.21,0,0,1,4.539-4.539l4.154,4.147L97.038,116.3a3.212,3.212,0,0,1,4.545,4.539Zm0-25.68L88.743,108a3.224,3.224,0,0,1-4.545,0l-6.42-6.42a3.21,3.21,0,0,1,4.539-4.539l4.154,4.147L97.038,90.624a3.212,3.212,0,0,1,4.545,4.539ZM124.99,128.2H112.15a3.21,3.21,0,0,1,0-6.42h12.84a3.21,3.21,0,0,1,0,6.42Zm0-25.68H112.15a3.21,3.21,0,1,1,0-6.42h12.84a3.21,3.21,0,1,1,0,6.42Z" transform="translate(-64 -64)"/></g></g></g></svg>