<svg xmlns="http://www.w3.org/2000/svg" xmlns:xlink="http://www.w3.org/1999/xlink" width="499" height="186" viewBox="0 0 499 186"><defs><style>.a,.h{fill:#fff;}.b,.d{fill:#2d2d2d;font-family:OpenSans-Bold, Open Sans;font-weight:700;}.b{font-size:22px;}.c{fill:#4731d4;}.d{font-size:37px;}.e,.f{fill:#16239a;}.f{stroke-linejoin:round;}.g,.h{stroke:none;}.i{filter:url(#a);}</style><filter id="a" x="0" y="0" width="499" height="186" filterUnits="userSpaceOnUse"><feOffset dy="3" input="SourceAlpha"/><feGaussianBlur stdDeviation="3" result="b"/><feFlood flood-opacity="0.161"/><feComposite operator="in" in2="b"/><feComposite in="SourceGraphic"/></filter></defs><g transform="translate(-337 -419)"><g transform="translate(-567 208)"><g class="i" transform="matrix(1, 0, 0, 1, 904, 211)"><rect class="a" width="481" height="168" rx="41" transform="translate(9 6)"/></g><text class="b" transform="translate(944 266)"><tspan x="0" y="0">Financiamentos</tspan></text><rect class="c" width="72" height="2" rx="1" transform="translate(944 278)"/><text class="d" transform="translate(944 341)"><tspan x="0" y="0">1 encontrado</tspan></text></g><g transform="translate(-2.629 13.23)"><g transform="translate(698.971 436.973)"><path class="e" d="M23,51h3.4v3.4H23Z" transform="translate(12.724 33.066)"/><path class="e" d="M93.862,97.868V36.134L53.034,8.417,12.207,36.134V54.29a5.927,5.927,0,0,1,5.519,3.724c4.239,10.482,6.39,17.6,6.39,21.142,0,7.094-4.285,12.577-10.207,13.468V89.176c3.882-.862,6.8-4.671,6.8-10.02,0-3.987-3.625-13.643-6.143-19.868a2.548,2.548,0,0,0-4.727,0C7.326,65.513,3.7,75.168,3.7,79.156c0,5.35,2.923,9.157,6.8,10.02v8.693H2v3.4H104.069v-3.4ZM70.046,75.753l3.4-5.1,3.4,5.1v5.1h6.8v-5.1l3.4-5.1,3.4,5.1V97.868h-6.8V87.662h-6.8V97.868h-6.8V87.662h-6.8V97.868h-6.8V75.753l3.4-5.1,3.4,5.1v5.1h6.8ZM54.736,41.731h8.506v3.4a5.1,5.1,0,0,1-5.1,5.1h-3.4Zm3.4-11.908a5.1,5.1,0,0,1,5.1,5.1v3.4H54.736V29.823Zm-15.31,5.1a5.1,5.1,0,0,1,5.1-5.1h3.4v8.506H42.828Zm0,6.8h8.506v8.506h-3.4a5.1,5.1,0,0,1-5.1-5.1Zm3.4,23.816V97.868H27.517V65.547Z" transform="translate(-2 3.209)"/><path class="e" d="M52.419,9.806,98.141,40.832l3.821-5.632L52.419,1.583,2.877,35.2,6.7,40.832Z" transform="translate(-1.385 -1.583)"/></g><g transform="translate(651 501.077)"><g class="f" transform="translate(0 -91)"><path class="g" d="M 82.45843505859375 149.1419677734375 L 77.45843505859375 149.1419677734375 L 62.15998840332031 149.1419677734375 L 57.15998840332031 149.1419677734375 L 57.15998840332031 144.3108825683594 L 25.29057312011719 144.3108825683594 L 25.29057312011719 149.1419677734375 L 20.29057312011719 149.1419677734375 L 4.992126941680908 149.1419677734375 L -0.007873084396123886 149.1419677734375 L -0.007873084396123886 144.1419677734375 L -0.007873084396123886 120.9978332519531 C -0.9660744071006775 120.2920074462891 -1.822383403778076 119.4435348510742 -2.553488492965698 118.4688491821289 C -4.154011726379395 116.335090637207 -4.999996185302734 113.7972030639648 -4.999996185302734 111.1295394897461 C -4.999996185302734 104.3767242431641 0.4938192367553711 98.88290405273438 7.246634483337402 98.88290405273438 L 10.46365261077881 98.88290405273438 L 13.87954235076904 89.31833648681641 L 15.06464958190918 86.00001525878906 L 18.58824920654297 86.00001525878906 L 63.86231231689453 86.00001525878906 L 67.38591003417969 86.00001525878906 L 68.57102203369141 89.31833648681641 L 71.98690795898438 98.88290405273438 L 75.20392608642578 98.88290405273438 C 81.95674133300781 98.88290405273438 87.45055389404297 104.3767242431641 87.45055389404297 111.1295394897461 C 87.45055389404297 113.7972030639648 86.60457611083984 116.335090637207 85.00405120849609 118.4688491821289 C 84.27294158935547 119.4435348510742 83.41663360595703 120.2920074462891 82.45843505859375 120.9978332519531 L 82.45843505859375 144.1419677734375 L 82.45843505859375 149.1419677734375 Z M 62.96517181396484 123.8435211181641 C 62.87203598022461 123.8435211181641 62.7962646484375 123.919303894043 62.7962646484375 124.0124435424805 C 62.7962646484375 124.105583190918 62.87203598022461 124.1813507080078 62.96517181396484 124.1813507080078 C 63.05831146240234 124.1813507080078 63.13407897949219 124.105583190918 63.13407897949219 124.0124435424805 C 63.13407897949219 123.919303894043 63.05831146240234 123.8435211181641 62.96517181396484 123.8435211181641 Z M 19.48538780212402 123.8435211181641 C 19.39225006103516 123.8435211181641 19.31648063659668 123.919303894043 19.31648063659668 124.0124435424805 C 19.31648063659668 124.105583190918 19.39225006103516 124.1813507080078 19.48538780212402 124.1813507080078 C 19.57852745056152 124.1813507080078 19.654296875 124.105583190918 19.654296875 124.0124435424805 C 19.654296875 123.919303894043 19.57852745056152 123.8435211181641 19.48538780212402 123.8435211181641 Z M 9.800559997558594 111.5271530151367 L 9.529511451721191 111.5746002197266 C 9.558530807495117 111.7403717041016 9.602841377258301 111.9000930786133 9.660835266113281 112.0523681640625 C 9.725063323974609 111.8849105834961 9.772340774536133 111.7091598510742 9.800559997558594 111.5271530151367 Z M 72.64983367919922 111.5270462036133 C 72.67804718017578 111.7090530395508 72.725341796875 111.8849029541016 72.78956604003906 112.052360534668 C 72.84755706787109 111.9000778198242 72.89189910888672 111.7402725219727 72.92091369628906 111.5744934082031 L 72.64983367919922 111.5270462036133 Z M 41.22528076171875 102.103630065918 C 47.07845687866211 102.103630065918 52.69609069824219 102.4954833984375 57.79798889160156 103.2500228881836 L 56.93408966064453 100.8311080932617 L 25.5164794921875 100.8311080932617 L 24.65258407592773 103.2500228881836 C 29.75448417663574 102.495475769043 35.37210464477539 102.103630065918 41.22528076171875 102.103630065918 Z"/><path class="h" d="M 18.58826065063477 91 L 13.90386199951172 104.1163940429688 C 13.32028198242188 103.9642333984375 12.70834350585938 103.8829040527344 12.07772064208984 103.8829040527344 L 7.246635437011719 103.8829040527344 C 3.250846862792969 103.8829040527344 -7.62939453125e-06 107.1337585449219 -7.62939453125e-06 111.129524230957 C -7.62939453125e-06 114.3816680908203 2.153694152832031 117.1400451660156 5.109512329101563 118.0542526245117 C 5.032386779785156 118.422233581543 4.992134094238281 118.7977752685547 4.992134094238281 119.1813583374023 L 4.992134094238281 144.1419677734375 L 20.29057312011719 144.1419677734375 L 20.29057312011719 139.3108825683594 L 62.15998840332031 139.3108825683594 L 62.15998840332031 144.1419677734375 L 77.45842742919922 144.1419677734375 L 77.45842742919922 119.1813583374023 C 77.45842742919922 118.7977752685547 77.41817474365234 118.422233581543 77.34103393554688 118.0542526245117 C 80.29686737060547 117.1400451660156 82.45055389404297 114.3816680908203 82.45055389404297 111.129524230957 C 82.45055389404297 107.1337585449219 79.19971466064453 103.8829040527344 75.20392608642578 103.8829040527344 L 70.37284088134766 103.8829040527344 C 69.74221801757813 103.8829040527344 69.13027954101563 103.9642333984375 68.54669952392578 104.1163940429688 L 63.86230087280273 91 L 18.58826065063477 91 M 63.33957290649414 109.385986328125 C 57.10392761230469 107.9081726074219 49.36759185791016 107.1036224365234 41.22528076171875 107.1036224365234 C 33.08296966552734 107.1036224365234 25.34661483764648 107.9081726074219 19.11096954345703 109.385986328125 C 18.89357376098633 108.5096282958984 18.51611328125 107.696403503418 18.01190948486328 106.9778747558594 L 21.99288558959961 95.83111572265625 L 60.45767593383789 95.83111572265625 L 64.43865966796875 106.9778594970703 C 63.9344482421875 107.696403503418 63.55682373046875 108.5096282958984 63.33957290649414 109.385986328125 M 8.516403198242188 113.5450897216797 L 7.246635437011719 113.5450897216797 C 5.914695739746094 113.5450897216797 4.831092834472656 112.4614639282227 4.831092834472656 111.129524230957 C 4.831092834472656 109.797607421875 5.914695739746094 108.713981628418 7.246635437011719 108.713981628418 L 12.07772064208984 108.713981628418 C 13.26713562011719 108.713981628418 14.25621795654297 109.5790863037109 14.45461273193359 110.7124633789063 C 11.99945068359375 111.5511322021484 10.01919555664063 112.4967346191406 8.516403198242188 113.5450897216797 M 75.20392608642578 113.5450897216797 L 73.93415832519531 113.5450897216797 C 72.43136596679688 112.4967346191406 70.45109558105469 111.5511322021484 67.99578094482422 110.7124633789063 C 68.19417572021484 109.5789184570313 69.18325805664063 108.713981628418 70.3726806640625 108.713981628418 L 75.20375823974609 108.713981628418 C 76.53569793701172 108.713981628418 77.61932373046875 109.797607421875 77.61932373046875 111.129524230957 C 77.61932373046875 112.4614639282227 76.53586578369141 113.5450897216797 75.20392608642578 113.5450897216797 M 19.48538589477539 128.8435363769531 C 16.81717681884766 128.8435363769531 14.65430450439453 126.6806488037109 14.65430450439453 124.0124435424805 C 14.65430450439453 121.3442153930664 16.81717681884766 119.1813583374023 19.48538589477539 119.1813583374023 C 22.15359497070313 119.1813583374023 24.31646728515625 121.3442153930664 24.31646728515625 124.0124435424805 C 24.31646728515625 126.6806488037109 22.15359497070313 128.8435363769531 19.48538589477539 128.8435363769531 M 62.96517944335938 128.8435363769531 C 60.29696655273438 128.8435363769531 58.13407135009766 126.6806488037109 58.13407135009766 124.0124435424805 C 58.13407135009766 121.3442153930664 60.29696655273438 119.1813583374023 62.96517944335938 119.1813583374023 C 65.63338470458984 119.1813583374023 67.79625701904297 121.3442153930664 67.79625701904297 124.0124435424805 C 67.79625701904297 126.6806488037109 65.63338470458984 128.8435363769531 62.96517944335938 128.8435363769531 M 52.49782180786133 129.648681640625 L 29.95273971557617 129.648681640625 L 29.95273971557617 124.8176116943359 L 52.49782180786133 124.8176116943359 L 52.49782180786133 129.648681640625 M 18.58826065063477 81 L 63.86230087280273 81 C 68.08844757080078 81 71.85832214355469 83.65670776367188 73.27971649169922 87.63665771484375 L 75.511474609375 93.88560485839844 C 84.87996673583984 94.05027770996094 92.45055389404297 101.7224426269531 92.45055389404297 111.129524230957 C 92.45055389404297 115.8238906860352 90.591064453125 120.1425933837891 87.45842742919922 123.2904205322266 L 87.45842742919922 144.1419677734375 C 87.45842742919922 149.6648254394531 82.98127746582031 154.1419677734375 77.45842742919922 154.1419677734375 L 62.15998840332031 154.1419677734375 C 58.52887344360352 154.1419677734375 55.34958648681641 152.206298828125 53.59774780273438 149.3108825683594 L 28.85281372070313 149.3108825683594 C 27.10097503662109 152.206298828125 23.92168807983398 154.1419677734375 20.29057312011719 154.1419677734375 L 4.992134094238281 154.1419677734375 C -0.5307159423828125 154.1419677734375 -5.007865905761719 149.6648254394531 -5.007865905761719 144.1419677734375 L -5.007865905761719 123.2904281616211 C -8.140495300292969 120.1426010131836 -10.00000762939453 115.8238754272461 -10.00000762939453 111.129524230957 C -10.00000762939453 101.7224426269531 -2.429420471191406 94.05027770996094 6.9390869140625 93.88560485839844 L 9.170845031738281 87.63665771484375 C 10.59223937988281 83.65670776367188 14.36211395263672 81 18.58826065063477 81 Z"/></g></g></g></g></svg>