<svg xmlns="http://www.w3.org/2000/svg" xmlns:xlink="http://www.w3.org/1999/xlink" width="545" height="186" viewBox="0 0 545 186"><defs><style>.a{fill:#fff;}.b{fill:#2d2d2d;font-size:22px;}.b,.d{font-family:OpenSans-Bold, Open Sans;font-weight:700;}.c{font-size:32px;}.d{fill:#9a9a9a;font-size:17px;}.e{fill:#4731d4;}.f{fill:none;}.g{fill:red;}.h{filter:url(#a);}</style><filter id="a" x="0" y="0" width="545" height="186" filterUnits="userSpaceOnUse"><feOffset dy="3" input="SourceAlpha"/><feGaussianBlur stdDeviation="3" result="b"/><feFlood flood-opacity="0.161"/><feComposite operator="in" in2="b"/><feComposite in="SourceGraphic"/></filter></defs><g transform="translate(-337 -211)"><g class="h" transform="matrix(1, 0, 0, 1, 337, 211)"><rect class="a" width="527" height="168" rx="41" transform="translate(9 6)"/></g><text class="b" transform="translate(376 254)"><tspan x="0" y="0">Status: </tspan><tspan class="c"><tspan x="0" y="30">Vermelho</tspan></tspan></text><text class="d" transform="translate(376 334)"><tspan x="0" y="0">Encontramos algumas dívidas suas, mas </tspan><tspan x="0" y="23">podemos te ajudar a sair dessa situação.</tspan></text><rect class="e" width="72" height="2" rx="1" transform="translate(376 296)"/><g transform="translate(693 279)"><path class="f" d="M0,0H48V48H0Z"/></g><g transform="translate(-10 -9)"><path class="g" d="M54.5,0A54.5,54.5,0,1,1,0,54.5,54.5,54.5,0,0,1,54.5,0Z" transform="translate(741 253)"/><path class="a" d="M40.905,15.2H30.375c-1.847,0-3.325,4.618-2.586,8.867l5.172,38.794c.924,6.281,4.434,6.281,5.357,0l5.172-38.794C44.23,19.818,42.937,15.2,40.905,15.2Z" transform="translate(759.579 255.151)"/><ellipse class="a" cx="5.542" cy="6.096" rx="5.542" ry="6.096" transform="translate(789.769 331.498)"/></g></g></svg>